<?xml version="1.0" encoding="UTF-8"?>
<svg id="Camada_1" data-name="Camada 1" xmlns="http://www.w3.org/2000/svg" version="1.1" viewBox="0 0 800 800">
  <defs>
    <style>
      .cls-1 {
        fill: #fcd34d;
        stroke-width: 0px;
      }
    </style>
  </defs>
  <path class="cls-1" d="M233.33,400c0,36.82-29.85,66.67-66.67,66.67s-66.67-29.85-66.67-66.67,29.85-66.67,66.67-66.67,66.67,29.85,66.67,66.67Z"/>
  <path class="cls-1" d="M466.67,400c0,36.82-29.85,66.67-66.67,66.67s-66.67-29.85-66.67-66.67,29.85-66.67,66.67-66.67,66.67,29.85,66.67,66.67Z"/>
  <path class="cls-1" d="M700,400c0,36.82-29.85,66.67-66.67,66.67s-66.67-29.85-66.67-66.67,29.85-66.67,66.67-66.67,66.67,29.85,66.67,66.67Z"/>
</svg>