<?xml version="1.0" encoding="UTF-8"?>
<svg id="Selfmade_by_NICF-Nettie" data-name="Selfmade by NICF-Nettie" xmlns="http://www.w3.org/2000/svg" version="1.1" viewBox="0 0 1279 586">
  <defs>
    <style>
      .cls-1 {
        fill: none;
      }

      .cls-1, .cls-2 {
        stroke-width: 0px;
      }

      .cls-2 {
        fill: #fcd34d;
      }
    </style>
  </defs>
  <path class="cls-2" d="M185.6,304.4c-41.7-11.4-54.5-14.1-64.5-16-21.9-4.1-40.1-6.1-52.4-7.1-4.6-.4-10.1-.6-16.3,0-7.9.7-14.5,2.4-19.6,4.2-.6-3.7-1.2-7.4-1.8-11.1,4.2-3.1,11.2-7.9,20.5-12.5,15.6-7.8,22.9-7.7,47.4-16.7h-11.4v-116.2h16c10.6,0,17.7,5.9,17.7,18.9v79c0,4.3-.8,7.7-2.1,10.3,2.5-1,5.1-2.1,7.8-3.3,16.3-7.2,25.5-12.3,33.7-16.3,11.8-5.9,20-8.8,34.5-13.6v-79.1c0-35.4-23.1-53.7-57.9-53.7H11.2v443.6h128.2c34.9,0,57.9-18.3,57.9-53.7v-133.3c0-8.2-1.1-15.1-2.9-21-3.1-.9-6.1-1.7-8.9-2.4h0ZM121.2,438.7c0,13.6-7.1,18.3-17.7,18.3h-16v-156.3h16c10,0,17.7,5.3,17.7,18.9v119.2h0Z"/>
  <path class="cls-2" d="M362.3,71.2h-108.2l-14.5,118.2h0v-.6c18.7-6.6,27.5-10.3,41.8-15.5,6-2.2,16.9-6,30.7-10.5,15.5-5.1,35.3-11.4,58.5-18.1l-8.3-73.7h0Z"/>
  <path class="cls-2" d="M193.7,304.5c.3.8.6,1.5.8,2.4-.3-.8-.5-1.6-.8-2.4Z"/>
  <polygon class="cls-2" points="400 126.7 441.4 126.7 441.4 285.1 471.2 311 490.9 315.1 518.2 332 518.2 129 559.6 129 559.6 71.2 400 71.2 400 126.7"/>
  <path class="cls-2" d="M774.3,425v89.8h66.8v-107.4c-13.3.5-26.3.8-38.9.9-9.2,5.3-18.5,10.9-27.9,16.6h0Z"/>
  <path class="cls-2" d="M670.8,494l3.6,20.8h51.4l11.3-66.2c-23.1,15.2-44.8,30.4-65,45.4-.4,0-.9,0-1.3,0h0Z"/>
  <line class="cls-1" x1="644.9" y1="342.5" x2="644.9" y2="342.5"/>
  <polygon class="cls-2" points="738.8 71.2 703.3 333.1 667.9 71.2 565.6 71.2 565.6 363 574.3 368.9 581.9 333.4 607 284.1 613 342.4 625.9 344.5 625.9 231.1 644.9 342.5 645.7 342.4 651.7 284.1 676.7 333.4 684.4 368.9 722.5 343.1 759 320.5 774.3 231.1 774.3 313.8 787.5 311 833.5 270.9 841 263.6 841 71.2 738.8 71.2"/>
  <path class="cls-2" d="M565.6,483.3v31.5h60.3v-19.9l-40.6.8c-6.6-4.1-13.1-8.3-19.7-12.4h0Z"/>
  <path class="cls-2" d="M1024.4,192.4l-13.7-121.2h-108.2l-10.8,88c53.1,11.2,97.8,23,132.2,33.1.2,0,.3,0,.5.1h0Z"/>
  <path class="cls-2" d="M1039.2,323.2c-10,4.1-19.8,8.1-29.5,12.2-9.4,12.1-16,20.7-21,26.9-3.9,5-7.4,9.5-11.2,16.3-3.5,6.5-5.7,12.3-7,16.5-1.1.2-2.2.3-3.3.5h3.8l13,119.2h76.8l-21.7-191.6h0Z"/>
  <path class="cls-2" d="M452.5,411.6c-3.8-.9-7.5-1.8-11.1-2.6v105.8h76.8v-61.4c-12.7-8-25.3-16-38-24.1-9.3-5.9-18.5-11.8-27.8-17.7h0Z"/>
  <path class="cls-2" d="M1191,260l-35-188.8h-89.8v134.1c58.5,18.9,84.8,32.3,97.8,39.3,9.8,5.2,18.8,10.4,27,15.5h0Z"/>
  <path class="cls-2" d="M1203.3,71.2l2.2,198c8.3,5.5,15.6,10.6,21.7,15.1-3.6,2.1-7.3,4.2-10.9,6.3-3.4-.1-7-.3-10.5-.5l.6,52.6c-4.6-25.1-7.9-42.8-9.9-53.3-3.2-.3-6.5-.6-9.8-.9-14.1-1.6-27.1-3.8-38.9-6.3-4,1.4-8,2.8-12,4.3l48.8,228.4h83.3V71.2h-64.4Z"/>
  <path class="cls-2" d="M1083.2,305.8c-5.7,2.2-11.4,4.4-17,6.6v202.4h62.1l-1.5-225.3c-14.3,5.2-28.9,10.6-43.6,16.2h0Z"/>
  <path class="cls-2" d="M895.5,404c-11.6,1-22.9,1.8-34.1,2.4l-13.3,108.4h68.6l11.3-114c-10.6,1.2-21.4,2.3-32.5,3.2h0Z"/>
  <path class="cls-2" d="M376.7,397.1c-4-.6-20.7-2.9-43.1-4.8-17.2-1.5-32.3-2.3-44.7-2.8-10.1-19-21.2-38.3-33.6-57.7-2-3.2-4-6.3-6.1-9.4-8.8-2.6-17.2-5-25-7.2l-24.5,199.6h68.6l11.8-119.2h42.6l13,119.2h76.8l-12.9-114.1c-8.4-1.4-16-2.6-22.9-3.6h0Z"/>
</svg>