<?xml version="1.0" encoding="UTF-8"?>
<svg id="Selfmade_by_NICF-Nettie" data-name="Selfmade by NICF-Nettie" xmlns="http://www.w3.org/2000/svg" version="1.1" viewBox="0 0 1279 586">
  <defs>
    <style>
      .cls-1 {
        fill: #fcd34d;
        stroke-width: 0px;
      }
    </style>
  </defs>
  <g id="Batsymbol">
    <g>
      <path class="cls-1" d="M677.78,113.52v-28.87h10.85v-9.88h-10.85v-22.29h12.04v-10.76h-26.03v82.56h27.23v-10.76h-13.23ZM587.98,52.04h7.66v72.24h14.22V52.47h7.66v-10.76h-29.53v10.32ZM643.2,72.81h-8.5v-31.1h-13.75v82.56h13.75v-41.28h8.5v41.28h13.75V41.72h-13.75v31.1Z"/>
      <path class="cls-1" d="M222.45,350.97c-38.35-10.46-50.1-12.95-59.25-14.67-20.11-3.78-36.87-5.57-48.17-6.5-4.2-.4-9.28-.54-15,0-7.22.68-13.31,2.25-18,3.83-.56-3.39-1.11-6.78-1.67-10.17,3.85-2.83,10.28-7.23,18.83-11.5,14.33-7.16,21.06-7.1,43.56-15.38h-10.47v-106.77h14.66c9.77,0,16.29,5.42,16.29,17.34v72.63c0,3.94-.71,7.07-1.97,9.5,2.26-.95,4.66-1.97,7.17-3.07,14.97-6.58,23.45-11.27,31-15,10.87-5.38,18.34-8.04,31.68-12.49v-72.7c0-32.52-21.18-49.32-53.22-49.32H62.24v407.58h117.84c32.04,0,53.22-16.8,53.22-49.32v-122.49c0-7.54-1-13.88-2.7-19.27-2.86-.79-5.59-1.53-8.16-2.23ZM163.25,474.37c0,12.47-6.52,16.8-16.29,16.8h-14.66v-143.63h14.66c9.23,0,16.29,4.88,16.29,17.34v109.48Z"/>
      <path class="cls-1" d="M384.81,136.71h-99.38l-13.32,108.63h0l.07-.53c17.14-6.09,25.21-9.45,38.34-14.2,5.52-2,15.56-5.47,28.17-9.63,14.27-4.71,32.42-10.45,53.78-16.59l-7.66-67.68Z"/>
      <path class="cls-1" d="M229.86,351.05c.26.7.51,1.42.74,2.16-.23-.74-.48-1.46-.74-2.16Z"/>
      <polygon class="cls-1" points="419.45 187.65 457.47 187.65 457.47 333.21 484.85 357.07 503.01 360.8 528.07 376.34 528.07 189.82 566.08 189.82 566.08 136.71 419.45 136.71 419.45 187.65"/>
      <path class="cls-1" d="M763.32,461.76v82.52h61.37v-98.68c-12.24.49-24.17.78-35.73.87-8.42,4.89-16.97,9.99-25.63,15.29Z"/>
      <path class="cls-1" d="M668.27,525.16l3.27,19.12h47.25l10.4-60.87c-21.27,13.97-41.17,27.96-59.71,41.72-.4,0-.8.02-1.2.02Z"/>
      <line class="cls-1" x1="644.5" y1="385.98" x2="644.5" y2="385.98"/>
      <polygon class="cls-1" points="730.73 136.71 698.15 377.35 665.56 136.71 571.62 136.71 571.62 404.85 579.56 410.22 586.57 377.59 609.62 332.3 615.12 385.87 627.01 387.79 627.01 283.59 644.5 385.98 645.18 385.87 650.69 332.3 673.73 377.59 680.74 410.22 715.81 386.54 749.28 365.78 763.32 283.59 763.32 359.57 775.46 357.07 817.75 320.21 824.68 313.52 824.68 136.71 730.73 136.71"/>
      <path class="cls-1" d="M571.62,515.33v28.96h55.39v-18.3l-37.31.74c-6.03-3.79-12.05-7.6-18.08-11.39Z"/>
      <path class="cls-1" d="M993.15,248.1l-12.62-111.4h-99.38l-9.92,80.89c48.81,10.26,89.86,21.17,121.46,30.37.15.04.3.09.45.13Z"/>
      <path class="cls-1" d="M1006.75,368.23c-9.15,3.73-18.17,7.48-27.06,11.24-8.61,11.13-14.73,18.98-19.25,24.75-3.57,4.56-6.83,8.7-10.25,15-3.25,5.99-5.24,11.34-6.45,15.14-1.01.15-2.04.3-3.06.45h3.46l11.95,109.48h70.6l-19.94-176.06Z"/>
      <path class="cls-1" d="M467.7,449.47c-3.48-.85-6.89-1.65-10.23-2.41v97.22h70.6v-56.45c-11.63-7.36-23.26-14.72-34.87-22.11-8.51-5.41-17.01-10.83-25.5-16.25Z"/>
      <path class="cls-1" d="M1146.24,310.18l-32.12-173.48h-82.54v123.19c53.71,17.41,77.92,29.69,89.87,36.08,8.98,4.8,17.25,9.59,24.8,14.21Z"/>
      <path class="cls-1" d="M1157.57,136.71l1.98,181.93c7.67,5.05,14.33,9.74,19.9,13.83-3.33,1.92-6.67,3.83-10,5.75-3.15-.11-6.4-.29-9.69-.49l.53,48.3c-4.27-23.07-7.29-39.36-9.06-48.93-2.97-.25-5.96-.54-9.03-.87-12.93-1.43-24.88-3.45-35.75-5.75-3.67,1.29-7.36,2.6-11.06,3.92l44.81,209.89h76.57V136.71h-59.19Z"/>
      <path class="cls-1" d="M1047.2,352.22c-5.25,2.02-10.45,4.04-15.62,6.07v185.99h57.02l-1.35-206.97c-13.18,4.76-26.53,9.71-40.05,14.91Z"/>
      <path class="cls-1" d="M874.7,442.47c-10.64.91-21.07,1.64-31.3,2.23l-12.21,99.59h63l10.4-104.79c-9.75,1.1-19.7,2.11-29.89,2.98Z"/>
      <path class="cls-1" d="M398.03,436.14c-3.63-.51-19.04-2.62-39.58-4.42-15.77-1.38-29.65-2.15-41.08-2.58-9.26-17.44-19.5-35.15-30.83-53-1.85-2.92-3.71-5.81-5.58-8.67-8.12-2.37-15.8-4.57-22.99-6.62l-22.49,183.43h63l10.86-109.48h39.1l11.95,109.48h70.6l-11.88-104.88c-7.68-1.31-14.73-2.39-21.06-3.27Z"/>
    </g>
  </g>
</svg>